<svg xmlns="http://www.w3.org/2000/svg" xmlns:xlink="http://www.w3.org/1999/xlink" width="200" zoomAndPan="magnify" viewBox="0 0 150 50.249999" height="67" preserveAspectRatio="xMidYMid meet" version="1.0"><defs><g/><clipPath id="298068951e"><path d="M 1.101562 43.523438 L 148.894531 43.523438 L 148.894531 45 L 1.101562 45 Z M 1.101562 43.523438 " clip-rule="nonzero"/></clipPath></defs><g fill="#000000" fill-opacity="1"><g transform="translate(1.126708, 38.063875)"><g><path d="M 26.484375 0 L 26.484375 -12 C 26.484375 -13.476562 26.164062 -14.582031 25.53125 -15.3125 C 24.90625 -16.050781 23.929688 -16.421875 22.609375 -16.421875 C 20.867188 -16.421875 19.582031 -15.921875 18.75 -14.921875 C 17.925781 -13.921875 17.515625 -12.382812 17.515625 -10.3125 L 17.515625 0 L 14.71875 0 L 14.71875 -12 C 14.71875 -13.476562 14.398438 -14.582031 13.765625 -15.3125 C 13.140625 -16.050781 12.160156 -16.421875 10.828125 -16.421875 C 9.078125 -16.421875 7.796875 -15.894531 6.984375 -14.84375 C 6.171875 -13.789062 5.765625 -12.070312 5.765625 -9.6875 L 5.765625 0 L 2.96875 0 L 2.96875 -18.453125 L 5.234375 -18.453125 L 5.6875 -15.921875 L 5.828125 -15.921875 C 6.359375 -16.828125 7.101562 -17.53125 8.0625 -18.03125 C 9.019531 -18.539062 10.09375 -18.796875 11.28125 -18.796875 C 14.164062 -18.796875 16.050781 -17.75 16.9375 -15.65625 L 17.078125 -15.65625 C 17.628906 -16.625 18.425781 -17.390625 19.46875 -17.953125 C 20.507812 -18.515625 21.695312 -18.796875 23.03125 -18.796875 C 25.125 -18.796875 26.6875 -18.257812 27.71875 -17.1875 C 28.757812 -16.113281 29.28125 -14.398438 29.28125 -12.046875 L 29.28125 0 Z M 26.484375 0 "/></g></g></g><g fill="#000000" fill-opacity="1"><g transform="translate(33.190835, 38.063875)"><g><path d="M 18.890625 -9.25 C 18.890625 -6.238281 18.128906 -3.882812 16.609375 -2.1875 C 15.097656 -0.5 13.007812 0.34375 10.34375 0.34375 C 8.6875 0.34375 7.21875 -0.0390625 5.9375 -0.8125 C 4.664062 -1.59375 3.679688 -2.707031 2.984375 -4.15625 C 2.285156 -5.601562 1.9375 -7.300781 1.9375 -9.25 C 1.9375 -12.25 2.6875 -14.585938 4.1875 -16.265625 C 5.695312 -17.953125 7.785156 -18.796875 10.453125 -18.796875 C 13.035156 -18.796875 15.085938 -17.9375 16.609375 -16.21875 C 18.128906 -14.5 18.890625 -12.175781 18.890625 -9.25 Z M 4.828125 -9.25 C 4.828125 -6.882812 5.296875 -5.082031 6.234375 -3.84375 C 7.179688 -2.613281 8.570312 -2 10.40625 -2 C 12.238281 -2 13.628906 -2.613281 14.578125 -3.84375 C 15.523438 -5.070312 16 -6.875 16 -9.25 C 16 -11.59375 15.523438 -13.375 14.578125 -14.59375 C 13.628906 -15.8125 12.226562 -16.421875 10.375 -16.421875 C 8.539062 -16.421875 7.15625 -15.816406 6.21875 -14.609375 C 5.289062 -13.410156 4.828125 -11.625 4.828125 -9.25 Z M 4.828125 -9.25 "/></g></g></g><g fill="#000000" fill-opacity="1"><g transform="translate(54.011479, 38.063875)"><g><path d="M 15.53125 -2.46875 L 15.375 -2.46875 C 14.082031 -0.59375 12.148438 0.34375 9.578125 0.34375 C 7.160156 0.34375 5.28125 -0.476562 3.9375 -2.125 C 2.601562 -3.78125 1.9375 -6.128906 1.9375 -9.171875 C 1.9375 -12.210938 2.609375 -14.578125 3.953125 -16.265625 C 5.304688 -17.953125 7.179688 -18.796875 9.578125 -18.796875 C 12.078125 -18.796875 14 -17.882812 15.34375 -16.0625 L 15.5625 -16.0625 L 15.4375 -17.390625 L 15.375 -18.6875 L 15.375 -26.203125 L 18.171875 -26.203125 L 18.171875 0 L 15.890625 0 Z M 9.9375 -2 C 11.84375 -2 13.222656 -2.519531 14.078125 -3.5625 C 14.941406 -4.601562 15.375 -6.28125 15.375 -8.59375 L 15.375 -9.171875 C 15.375 -11.785156 14.9375 -13.648438 14.0625 -14.765625 C 13.195312 -15.890625 11.8125 -16.453125 9.90625 -16.453125 C 8.257812 -16.453125 7 -15.8125 6.125 -14.53125 C 5.257812 -13.257812 4.828125 -11.460938 4.828125 -9.140625 C 4.828125 -6.785156 5.257812 -5.003906 6.125 -3.796875 C 6.988281 -2.597656 8.257812 -2 9.9375 -2 Z M 9.9375 -2 "/></g></g></g><g fill="#000000" fill-opacity="1"><g transform="translate(75.135092, 38.063875)"><g><path d="M 10.765625 0.34375 C 8.035156 0.34375 5.878906 -0.484375 4.296875 -2.140625 C 2.722656 -3.804688 1.9375 -6.117188 1.9375 -9.078125 C 1.9375 -12.046875 2.664062 -14.40625 4.125 -16.15625 C 5.59375 -17.914062 7.5625 -18.796875 10.03125 -18.796875 C 12.34375 -18.796875 14.171875 -18.035156 15.515625 -16.515625 C 16.867188 -14.992188 17.546875 -12.984375 17.546875 -10.484375 L 17.546875 -8.71875 L 4.828125 -8.71875 C 4.890625 -6.550781 5.4375 -4.90625 6.46875 -3.78125 C 7.507812 -2.664062 8.972656 -2.109375 10.859375 -2.109375 C 12.847656 -2.109375 14.8125 -2.519531 16.75 -3.34375 L 16.75 -0.859375 C 15.757812 -0.429688 14.820312 -0.125 13.9375 0.0625 C 13.0625 0.25 12.003906 0.34375 10.765625 0.34375 Z M 10 -16.453125 C 8.519531 -16.453125 7.335938 -15.96875 6.453125 -15 C 5.578125 -14.03125 5.0625 -12.695312 4.90625 -11 L 14.546875 -11 C 14.546875 -12.757812 14.148438 -14.109375 13.359375 -15.046875 C 12.578125 -15.984375 11.457031 -16.453125 10 -16.453125 Z M 10 -16.453125 "/></g></g></g><g fill="#000000" fill-opacity="1"><g transform="translate(94.47456, 38.063875)"><g><path d="M 11.375 -18.796875 C 12.195312 -18.796875 12.9375 -18.726562 13.59375 -18.59375 L 13.203125 -16 C 12.441406 -16.164062 11.769531 -16.25 11.1875 -16.25 C 9.6875 -16.25 8.40625 -15.640625 7.34375 -14.421875 C 6.289062 -13.210938 5.765625 -11.707031 5.765625 -9.90625 L 5.765625 0 L 2.96875 0 L 2.96875 -18.453125 L 5.265625 -18.453125 L 5.59375 -15.03125 L 5.71875 -15.03125 C 6.40625 -16.238281 7.226562 -17.164062 8.1875 -17.8125 C 9.15625 -18.46875 10.21875 -18.796875 11.375 -18.796875 Z M 11.375 -18.796875 "/></g></g></g><g fill="#000000" fill-opacity="1"><g transform="translate(108.545743, 38.063875)"><g><path d="M 15.59375 0 L 15.59375 -11.9375 C 15.59375 -13.4375 15.25 -14.554688 14.5625 -15.296875 C 13.875 -16.046875 12.800781 -16.421875 11.34375 -16.421875 C 9.414062 -16.421875 8.003906 -15.894531 7.109375 -14.84375 C 6.210938 -13.800781 5.765625 -12.082031 5.765625 -9.6875 L 5.765625 0 L 2.96875 0 L 2.96875 -18.453125 L 5.234375 -18.453125 L 5.6875 -15.921875 L 5.828125 -15.921875 C 6.398438 -16.835938 7.203125 -17.546875 8.234375 -18.046875 C 9.265625 -18.546875 10.414062 -18.796875 11.6875 -18.796875 C 13.90625 -18.796875 15.578125 -18.257812 16.703125 -17.1875 C 17.828125 -16.113281 18.390625 -14.398438 18.390625 -12.046875 L 18.390625 0 Z M 15.59375 0 "/></g></g></g><g fill="#000000" fill-opacity="1"><g transform="translate(129.703019, 38.063875)"><g><path d="M 14.3125 0 L 13.75 -2.625 L 13.625 -2.625 C 12.695312 -1.46875 11.773438 -0.679688 10.859375 -0.265625 C 9.953125 0.140625 8.8125 0.34375 7.4375 0.34375 C 5.613281 0.34375 4.179688 -0.125 3.140625 -1.0625 C 2.097656 -2.007812 1.578125 -3.359375 1.578125 -5.109375 C 1.578125 -8.828125 4.5625 -10.78125 10.53125 -10.96875 L 13.65625 -11.0625 L 13.65625 -12.203125 C 13.65625 -13.648438 13.34375 -14.71875 12.71875 -15.40625 C 12.09375 -16.101562 11.097656 -16.453125 9.734375 -16.453125 C 8.191406 -16.453125 6.453125 -15.976562 4.515625 -15.03125 L 3.65625 -17.171875 C 4.5625 -17.671875 5.554688 -18.054688 6.640625 -18.328125 C 7.722656 -18.609375 8.8125 -18.75 9.90625 -18.75 C 12.101562 -18.75 13.734375 -18.257812 14.796875 -17.28125 C 15.859375 -16.3125 16.390625 -14.75 16.390625 -12.59375 L 16.390625 0 Z M 8 -1.96875 C 9.738281 -1.96875 11.101562 -2.441406 12.09375 -3.390625 C 13.09375 -4.347656 13.59375 -5.6875 13.59375 -7.40625 L 13.59375 -9.078125 L 10.796875 -8.953125 C 8.566406 -8.878906 6.960938 -8.535156 5.984375 -7.921875 C 5.003906 -7.304688 4.515625 -6.351562 4.515625 -5.0625 C 4.515625 -4.050781 4.816406 -3.28125 5.421875 -2.75 C 6.035156 -2.226562 6.894531 -1.96875 8 -1.96875 Z M 8 -1.96875 "/></g></g></g><g clip-path="url(#298068951e)"><path fill="#000000" d="M 148.898438 44.957031 L 146.226562 44.957031 L 146.226562 43.570312 L 148.898438 43.570312 Z M 143.074219 44.957031 L 139.917969 44.957031 L 139.917969 43.570312 L 143.074219 43.570312 Z M 136.761719 44.957031 L 133.609375 44.957031 L 133.609375 43.570312 L 136.761719 43.570312 Z M 130.453125 44.957031 L 127.296875 44.957031 L 127.296875 43.570312 L 130.453125 43.570312 Z M 124.144531 44.957031 L 120.988281 44.957031 L 120.988281 43.570312 L 124.144531 43.570312 Z M 117.832031 44.957031 L 114.679688 44.957031 L 114.679688 43.570312 L 117.832031 43.570312 Z M 111.523438 44.957031 L 108.367188 44.957031 L 108.367188 43.570312 L 111.523438 43.570312 Z M 105.214844 44.957031 L 102.058594 44.957031 L 102.058594 43.570312 L 105.214844 43.570312 Z M 98.902344 44.957031 L 95.75 44.957031 L 95.75 43.570312 L 98.902344 43.570312 Z M 92.59375 44.957031 L 89.441406 44.957031 L 89.441406 43.570312 L 92.59375 43.570312 Z M 86.285156 44.957031 L 83.128906 44.957031 L 83.128906 43.570312 L 86.285156 43.570312 Z M 79.976562 44.957031 L 76.820312 44.957031 L 76.820312 43.570312 L 79.976562 43.570312 Z M 73.664062 44.957031 L 70.511719 44.957031 L 70.511719 43.570312 L 73.664062 43.570312 Z M 67.355469 44.957031 L 64.199219 44.957031 L 64.199219 43.570312 L 67.355469 43.570312 Z M 61.046875 44.957031 L 57.890625 44.957031 L 57.890625 43.570312 L 61.046875 43.570312 Z M 54.734375 44.957031 L 51.582031 44.957031 L 51.582031 43.570312 L 54.734375 43.570312 Z M 48.425781 44.957031 L 45.269531 44.957031 L 45.269531 43.570312 L 48.425781 43.570312 Z M 42.117188 44.957031 L 38.960938 44.957031 L 38.960938 43.570312 L 42.117188 43.570312 Z M 35.808594 44.957031 L 32.652344 44.957031 L 32.652344 43.570312 L 35.808594 43.570312 Z M 29.496094 44.957031 L 26.34375 44.957031 L 26.34375 43.570312 L 29.496094 43.570312 Z M 23.1875 44.957031 L 20.03125 44.957031 L 20.03125 43.570312 L 23.1875 43.570312 Z M 16.878906 44.957031 L 13.722656 44.957031 L 13.722656 43.570312 L 16.878906 43.570312 Z M 10.566406 44.957031 L 7.414062 44.957031 L 7.414062 43.570312 L 10.566406 43.570312 Z M 4.257812 44.957031 L 1.101562 44.957031 L 1.101562 43.570312 L 4.257812 43.570312 Z M 4.257812 44.957031 " fill-opacity="1" fill-rule="nonzero"/></g></svg>