<svg xmlns="http://www.w3.org/2000/svg" xmlns:xlink="http://www.w3.org/1999/xlink" width="200" zoomAndPan="magnify" viewBox="0 0 150 37.5" height="50" preserveAspectRatio="xMidYMid meet" version="1.0"><defs><g/></defs><g fill="#000000" fill-opacity="1"><g transform="translate(3.001295, 28.541999)"><g><path d="M 9.554688 0.28125 C 13.921875 0.28125 17.316406 -2.074219 17.316406 -6.222656 C 17.316406 -10.8125 13.417969 -11.722656 9.960938 -12.570312 C 7.132812 -13.230469 4.589844 -13.859375 4.589844 -16.25 C 4.589844 -18.355469 6.601562 -19.609375 9.269531 -19.609375 C 11.941406 -19.609375 13.953125 -18.195312 13.953125 -15.746094 L 16.6875 -15.746094 C 16.6875 -19.738281 13.890625 -22.25 9.335938 -22.25 C 4.777344 -22.25 1.855469 -19.957031 1.855469 -16.152344 C 1.855469 -11.753906 5.59375 -10.84375 8.988281 -10.058594 C 11.847656 -9.367188 14.457031 -8.769531 14.457031 -6.191406 C 14.457031 -3.867188 12.289062 -2.421875 9.523438 -2.421875 C 6.472656 -2.421875 4.242188 -4.023438 4.242188 -6.757812 L 1.414062 -6.757812 C 1.414062 -2.421875 4.714844 0.28125 9.554688 0.28125 Z M 9.554688 0.28125 "/></g></g></g><g fill="#000000" fill-opacity="1"><g transform="translate(21.762268, 28.541999)"><g><path d="M 2.984375 0 L 5.75 0 L 5.75 -22 L 2.984375 -22 Z M 2.984375 0 "/></g></g></g><g fill="#000000" fill-opacity="1"><g transform="translate(30.52996, 28.541999)"><g><path d="M 17.820312 -22 L 17.820312 -5.027344 L 5.5 -22 L 2.984375 -22 L 2.984375 0 L 5.6875 0 L 5.6875 -17.160156 L 18.195312 0 L 20.523438 0 L 20.523438 -22 Z M 17.820312 -22 "/></g></g></g><g fill="#000000" fill-opacity="1"><g transform="translate(54.067592, 28.541999)"><g><path d="M 13.011719 0.378906 C 19.675781 0.378906 24.515625 -4.496094 24.515625 -10.96875 C 24.515625 -17.472656 19.675781 -22.34375 13.011719 -22.34375 C 6.347656 -22.34375 1.476562 -17.472656 1.476562 -10.96875 C 1.476562 -4.496094 6.347656 0.378906 13.011719 0.378906 Z M 13.011719 -2.324219 C 8.015625 -2.324219 4.304688 -6.066406 4.304688 -10.96875 C 4.304688 -15.902344 8.015625 -19.644531 13.011719 -19.644531 C 18.007812 -19.644531 21.71875 -15.933594 21.71875 -10.96875 C 21.71875 -6.035156 18.007812 -2.324219 13.011719 -2.324219 Z M 13.011719 -2.324219 "/></g></g></g><g fill="#000000" fill-opacity="1"><g transform="translate(80.119254, 28.541999)"><g><path d="M 17.726562 -22 L 10.71875 -4.117188 L 3.613281 -22 L 0.566406 -22 L 9.460938 0 L 12.003906 0 L 20.742188 -22 Z M 17.726562 -22 "/></g></g></g><g fill="#000000" fill-opacity="1"><g transform="translate(101.551389, 28.541999)"><g><path d="M 20.429688 0 L 11.816406 -22 L 9.238281 -22 L 0.628906 0 L 3.519531 0 L 10.527344 -17.976562 L 17.441406 0 Z M 20.429688 0 "/></g></g></g><g fill="#000000" fill-opacity="1"><g transform="translate(122.606411, 28.541999)"><g><path d="M 12.761719 0.347656 C 17.945312 0.347656 22.03125 -2.765625 23.289062 -7.730469 L 20.492188 -7.730469 C 19.328125 -4.367188 16.46875 -2.355469 12.761719 -2.355469 C 7.855469 -2.355469 4.304688 -5.910156 4.304688 -10.96875 C 4.304688 -16.027344 7.855469 -19.644531 12.761719 -19.644531 C 16.375 -19.644531 19.203125 -17.726562 20.367188 -14.550781 L 23.195312 -14.550781 C 21.9375 -19.296875 17.851562 -22.3125 12.761719 -22.3125 C 6.222656 -22.3125 1.476562 -17.570312 1.476562 -10.96875 C 1.476562 -4.398438 6.222656 0.347656 12.761719 0.347656 Z M 12.761719 0.347656 "/></g></g></g></svg>